<?xml version="1.0" encoding="utf-8"?>
<!-- Generator: Adobe Illustrator 23.0.1, SVG Export Plug-In . SVG Version: 6.00 Build 0)  -->
<svg version="1.1" id="Réteg_1" xmlns="http://www.w3.org/2000/svg" xmlns:xlink="http://www.w3.org/1999/xlink" x="0px" y="0px"
	 viewBox="0 0 260.8 22.8" style="enable-background:new 0 0 260.8 22.8;" xml:space="preserve">
<g>
	<path d="M17.5,16.2h-7.2l-1.6,4.5H5.8l6.5-17.1h3.3L22,20.7h-2.9L17.5,16.2z M16.6,13.9l-2-5.5L13.9,6h-0.1l-0.7,2.4l-2,5.5H16.6z"
		/>
	<path d="M32.7,7.7l-0.4,2.5c-0.4-0.2-0.9-0.3-1.6-0.3c-0.6,0-1.1,0.1-1.6,0.4c-0.5,0.3-0.9,0.7-1.2,1.3c-0.3,0.6-0.5,1.3-0.5,2.1
		v6.9h-2.8v-13H27l0.2,2.3c0.7-1.7,2.1-2.6,4.1-2.6C31.9,7.5,32.4,7.6,32.7,7.7z"/>
	<path d="M46.3,11.1l-2.6,1c-0.4-1.6-1.5-2.5-3-2.5c-1.2,0-2.1,0.4-2.7,1.2c-0.6,0.8-1,1.9-1,3.4s0.3,2.6,1,3.3
		c0.6,0.8,1.5,1.2,2.7,1.2c0.9,0,1.6-0.2,2.1-0.6c0.5-0.4,0.9-1.1,1.1-1.9l2.5,0.9c-0.4,1.2-1.1,2.2-2,2.8c-1,0.7-2.2,1-3.7,1
		c-2,0-3.6-0.6-4.8-1.8c-1.1-1.2-1.7-2.8-1.7-4.9s0.6-3.8,1.7-4.9c1.1-1.2,2.7-1.8,4.7-1.8C43.6,7.5,45.4,8.7,46.3,11.1z"/>
	<path d="M60.2,8.7c0.9,0.8,1.4,2,1.4,3.6v8.4h-2.8v-7.5c0-2.3-0.9-3.4-2.8-3.4c-1,0-1.8,0.3-2.5,1c-0.7,0.7-1,1.7-1,3.1v6.8h-2.8
		V1.9h2.8v7.9c0.4-0.8,1-1.4,1.7-1.8c0.7-0.4,1.5-0.6,2.5-0.6C58.1,7.5,59.3,7.9,60.2,8.7z"/>
	<path d="M65.8,5.1c-0.3-0.3-0.5-0.7-0.5-1.3c0-0.6,0.2-1,0.5-1.3c0.3-0.3,0.8-0.4,1.4-0.4c0.6,0,1,0.1,1.4,0.4
		C68.8,2.8,69,3.3,69,3.8c0,0.6-0.2,1-0.5,1.3c-0.3,0.3-0.8,0.5-1.4,0.5C66.5,5.6,66.1,5.4,65.8,5.1z M68.5,20.7h-2.8v-13h2.8V20.7z
		"/>
	<path d="M78.2,14.6l-2.6,2.6v3.4h-2.8V1.9h2.8v12.2l6.2-6.3H85l-4.9,5.1l5.3,7.9h-3.2L78.2,14.6z"/>
	<path d="M97.8,9.3c1.1,1.2,1.7,2.8,1.7,4.9S99,18,97.8,19.2c-1.1,1.2-2.7,1.8-4.7,1.8s-3.6-0.6-4.7-1.8c-1.1-1.2-1.7-2.8-1.7-4.9
		s0.6-3.8,1.7-4.9c1.1-1.2,2.7-1.8,4.7-1.8S96.7,8.1,97.8,9.3z M90.4,10.8c-0.6,0.8-0.9,1.9-0.9,3.4c0,1.5,0.3,2.6,0.9,3.4
		c0.6,0.8,1.5,1.2,2.7,1.2c1.2,0,2.1-0.4,2.7-1.2c0.6-0.8,1-1.9,1-3.4s-0.3-2.6-1-3.4c-0.6-0.8-1.5-1.2-2.7-1.2
		C91.9,9.6,91,10,90.4,10.8z"/>
	<path d="M113.6,8.7c0.9,0.8,1.4,2,1.4,3.6v8.4h-2.8v-7.5c0-2.3-0.9-3.4-2.8-3.4c-1,0-1.8,0.3-2.5,1c-0.7,0.7-1,1.7-1,3.1v6.9h-2.8
		v-13h2.5l0.1,2.1c0.4-0.8,1-1.4,1.8-1.8c0.8-0.4,1.6-0.6,2.6-0.6C111.5,7.5,112.6,7.9,113.6,8.7z"/>
	<path d="M136.7,16.2h-7.2l-1.6,4.5H125l6.5-17.1h3.3l6.5,17.1h-2.9L136.7,16.2z M135.8,13.9l-2-5.5L133.1,6H133l-0.7,2.4l-2,5.5
		H135.8z"/>
	<path d="M152,7.7l-0.4,2.5c-0.4-0.2-0.9-0.3-1.6-0.3c-0.6,0-1.1,0.1-1.6,0.4c-0.5,0.3-0.9,0.7-1.2,1.3c-0.3,0.6-0.5,1.3-0.5,2.1
		v6.9h-2.8v-13h2.4l0.2,2.3c0.7-1.7,2.1-2.6,4.1-2.6C151.1,7.5,151.6,7.6,152,7.7z"/>
	<path d="M165.6,11.1l-2.6,1c-0.4-1.6-1.5-2.5-3-2.5c-1.2,0-2.1,0.4-2.7,1.2c-0.6,0.8-1,1.9-1,3.4s0.3,2.6,1,3.3
		c0.6,0.8,1.5,1.2,2.7,1.2c0.9,0,1.6-0.2,2.1-0.6c0.5-0.4,0.9-1.1,1.1-1.9l2.5,0.9c-0.4,1.2-1.1,2.2-2,2.8c-1,0.7-2.2,1-3.7,1
		c-2,0-3.6-0.6-4.8-1.8c-1.1-1.2-1.7-2.8-1.7-4.9s0.6-3.8,1.7-4.9c1.1-1.2,2.7-1.8,4.7-1.8C162.8,7.5,164.6,8.7,165.6,11.1z"/>
	<path d="M179.4,8.7c0.9,0.8,1.4,2,1.4,3.6v8.4H178v-7.5c0-2.3-0.9-3.4-2.8-3.4c-1,0-1.8,0.3-2.5,1c-0.7,0.7-1,1.7-1,3.1v6.8h-2.8
		V1.9h2.8v7.9c0.4-0.8,1-1.4,1.7-1.8c0.7-0.4,1.5-0.6,2.5-0.6C177.3,7.5,178.5,7.9,179.4,8.7z"/>
	<path d="M185,5.1c-0.3-0.3-0.5-0.7-0.5-1.3c0-0.6,0.2-1,0.5-1.3c0.3-0.3,0.8-0.4,1.4-0.4c0.6,0,1,0.1,1.4,0.4
		c0.3,0.3,0.5,0.7,0.5,1.3c0,0.6-0.2,1-0.5,1.3c-0.3,0.3-0.8,0.5-1.4,0.5C185.7,5.6,185.3,5.4,185,5.1z M187.7,20.7h-2.8v-13h2.8
		V20.7z"/>
	<path d="M200.4,19.8c-0.4,0.3-0.9,0.6-1.5,0.8c-0.6,0.2-1.2,0.3-1.9,0.3c-1.2,0-2.1-0.3-2.9-0.9c-0.7-0.6-1.1-1.5-1.1-2.8V9.9h-2.5
		V7.7h2.5v-3l2.8-0.8v3.8h4.5v2.2h-4.5v6.9c0,0.6,0.2,1.1,0.5,1.4c0.3,0.3,0.8,0.5,1.4,0.5c0.8,0,1.5-0.3,2.1-0.8L200.4,19.8z"/>
	<path d="M214.5,15.2H205c0.2,1.1,0.6,2,1.2,2.6c0.7,0.6,1.5,0.9,2.5,0.9c0.8,0,1.5-0.2,2.1-0.5c0.6-0.3,0.9-0.7,1.2-1.3l2.3,1
		c-1,2-2.8,3-5.6,3c-2,0-3.6-0.6-4.8-1.8c-1.1-1.2-1.7-2.8-1.7-4.9c0-2.1,0.6-3.8,1.7-5c1.1-1.2,2.7-1.8,4.7-1.8
		c1.9,0,3.4,0.6,4.4,1.7c1.1,1.2,1.6,2.7,1.6,4.6C214.6,14.3,214.6,14.8,214.5,15.2z M206.2,10.6c-0.6,0.6-1,1.4-1.2,2.6h7
		c-0.1-1.1-0.5-1.9-1.1-2.5s-1.4-0.9-2.3-0.9C207.6,9.7,206.8,10,206.2,10.6z"/>
	<path d="M229.4,11.1l-2.6,1c-0.4-1.6-1.5-2.5-3-2.5c-1.2,0-2.1,0.4-2.7,1.2c-0.6,0.8-1,1.9-1,3.4s0.3,2.6,1,3.3
		c0.6,0.8,1.5,1.2,2.7,1.2c0.9,0,1.6-0.2,2.1-0.6c0.5-0.4,0.9-1.1,1.1-1.9l2.5,0.9c-0.4,1.2-1.1,2.2-2,2.8c-1,0.7-2.2,1-3.7,1
		c-2,0-3.6-0.6-4.8-1.8c-1.1-1.2-1.7-2.8-1.7-4.9s0.6-3.8,1.7-4.9c1.1-1.2,2.7-1.8,4.7-1.8C226.6,7.5,228.5,8.7,229.4,11.1z"/>
	<path d="M241.1,19.8c-0.4,0.3-0.9,0.6-1.5,0.8c-0.6,0.2-1.2,0.3-1.9,0.3c-1.2,0-2.1-0.3-2.9-0.9c-0.7-0.6-1.1-1.5-1.1-2.8V9.9h-2.5
		V7.7h2.5v-3l2.8-0.8v3.8h4.5v2.2h-4.5v6.9c0,0.6,0.2,1.1,0.5,1.4c0.3,0.3,0.8,0.5,1.4,0.5c0.8,0,1.5-0.3,2.1-0.8L241.1,19.8z"/>
	<path d="M244.9,20.3c-1-0.4-1.8-1.1-2.3-2l1.9-1.6c0.3,0.7,0.8,1.3,1.5,1.6c0.7,0.3,1.5,0.5,2.5,0.5c0.9,0,1.6-0.1,2-0.4
		c0.5-0.3,0.7-0.7,0.7-1.1c0-0.4-0.2-0.7-0.7-1c-0.4-0.3-1.2-0.5-2.3-0.7c-1.9-0.4-3.3-0.8-4-1.5c-0.8-0.6-1.2-1.5-1.2-2.6
		c0-0.7,0.2-1.4,0.6-2c0.4-0.6,1.1-1.1,1.9-1.5c0.8-0.4,1.8-0.6,2.9-0.6c1.4,0,2.6,0.2,3.4,0.7c0.9,0.5,1.5,1.2,2,2.2l-2,1.5
		c-0.3-0.8-0.7-1.3-1.3-1.7c-0.6-0.4-1.3-0.5-2.1-0.5c-0.8,0-1.4,0.2-1.9,0.5c-0.5,0.3-0.8,0.7-0.8,1.1c0,0.5,0.2,0.8,0.7,1.1
		c0.5,0.3,1.3,0.5,2.5,0.8c1.8,0.3,3.1,0.8,3.9,1.4c0.8,0.6,1.1,1.5,1.1,2.5c0,1.2-0.5,2.1-1.5,2.8c-1,0.7-2.4,1.1-4.1,1.1
		C247.1,20.9,245.9,20.7,244.9,20.3z"/>
</g>
</svg>
