<?xml version="1.0" encoding="utf-8"?>
<!-- Generator: Adobe Illustrator 23.0.1, SVG Export Plug-In . SVG Version: 6.00 Build 0)  -->
<svg version="1.1" id="Layer_1" xmlns="http://www.w3.org/2000/svg" xmlns:xlink="http://www.w3.org/1999/xlink" x="0px" y="0px"
	 viewBox="0 0 30.1 74.9" style="enable-background:new 0 0 30.1 74.9;" xml:space="preserve">
<style type="text/css">
	.st0{fill:#65318F;}
	.st1{fill:#FFFFFF;}
</style>
<g id="XMLID_93_">
	<path id="XMLID_575_" d="M-697.9,370.1c10.2-13.5,9.2-32.9-3.1-45.2c-12.2-12.2-31.2-13.3-44.7-3.5c-20-34.8-23.6-77.7-9.3-115.5
		l-6.8-2.6c-15.2,40.3-11.2,86.1,10.6,123c-5.6,6.3-8.7,14.4-8.7,22.9c0,9.2,3.6,17.9,10.1,24.4c6.7,6.7,15.6,10.1,24.4,10.1
		c8,0,16-2.8,22.5-8.3c22.6,13.9,48.7,21.1,74.9,21.1c17,0,34.1-3,50.3-9.1l-2.6-6.8C-619,395.2-662.7,391.2-697.9,370.1z
		 M-744.7,368.6c-5.1-5.1-8-12-8-19.3c0-7.3,2.8-14.1,8-19.3c5.3-5.3,12.3-8,19.3-8c7,0,14,2.7,19.3,8c10.6,10.6,10.6,27.9,0,38.5
		C-716.8,379.2-734.1,379.2-744.7,368.6z"/>
	<path id="XMLID_576_" d="M-744.8,159l0.8,10l4.1,3.3l3.8-4.7c1-1.3,2-2,3.1-2.3c1-0.3,2,0,2.9,0.7c0.9,0.8,1.4,1.7,1.3,2.7
		c-0.1,1-0.6,2.2-1.6,3.4c-1,1.3-2.3,2.3-3.8,3.1c-1.5,0.8-3.2,1.4-5,1.8l3,7.2c2.1-0.5,4.2-1.4,6.4-2.9c2.2-1.4,4.1-3.1,5.7-5.1
		c1.8-2.2,3-4.4,3.6-6.6c0.6-2.2,0.6-4.3,0-6.3c-0.6-2-1.7-3.6-3.4-5c-2-1.6-4.1-2.3-6.3-2.1c-2.3,0.2-4.4,1.1-6.4,2.8l-1.3,1.1
		l-0.6-11.6l-4.5-3.6l-15.4,18.9l5.7,4.7L-744.8,159z"/>
	<path id="XMLID_579_" d="M-718.3,145.4c1.9,2.9,4.1,5,6.5,6.5c2.4,1.5,4.9,2.2,7.5,2.1c2.6-0.1,5.1-1,7.7-2.7
		c2.1-1.4,3.7-3,4.7-4.9c1.1-1.9,1.5-3.8,1.4-5.9c-0.1-2.1-0.8-4.1-2.2-6.1c-1.2-1.8-2.7-3.2-4.3-4.1c-1.7-0.9-3.4-1.3-5.3-1.1
		c-1.9,0.1-3.7,0.8-5.5,2c-1.4,0.9-2.5,2-3.2,3.1c-0.7,1.2-1.1,2.4-1.2,3.7c-1.4-2-2-4-1.7-5.8c0.3-1.8,1.4-3.3,3.3-4.7
		c2.2-1.5,4.5-2.1,6.9-2l-0.7-7.6c-1.7,0-3.5,0.4-5.5,1.1c-2,0.7-3.7,1.6-5.4,2.7c-2.6,1.8-4.5,3.9-5.7,6.5
		c-1.2,2.5-1.5,5.3-1.1,8.3C-721.5,139.5-720.3,142.5-718.3,145.4z M-707.7,141c0.2-1,0.8-1.9,2-2.7c1.1-0.7,2.1-1,3.1-0.8
		c1,0.2,1.8,0.8,2.5,1.9c0.8,1.1,1,2.2,0.8,3.2c-0.2,1-0.8,1.8-1.9,2.6c-1.1,0.8-2.2,1-3.2,0.8c-1-0.2-1.8-0.9-2.5-1.9
		C-707.7,143-707.9,142-707.7,141z"/>
	<path id="XMLID_582_" d="M-674.1,134c3.3,2.2,7.4,2.6,12.2,1.2c4.7-1.3,8-3.8,9.7-7.4c1.7-3.6,1.8-8.1,0.3-13.4
		c-1.5-5.3-3.9-9.1-7.3-11.2c-3.4-2.1-7.4-2.5-12.1-1.2c-4.8,1.4-8,3.8-9.8,7.4c-1.7,3.6-1.8,8-0.3,13.4
		C-679.9,128.1-677.4,131.8-674.1,134z M-672.4,112.2c0.3-1.7,1.4-2.7,3.1-3.2c1.7-0.5,3.1-0.1,4.3,1.1c1.1,1.2,2.2,3.6,3.2,7.1
		c1,3.5,1.3,6.1,1,7.7c-0.3,1.7-1.3,2.7-3,3.2c-1.7,0.5-3.2,0.1-4.4-1.1c-1.2-1.3-2.2-3.6-3.2-7.1
		C-672.4,116.4-672.7,113.8-672.4,112.2z"/>
	<path id="XMLID_583_" d="M-602.1,133.5c3.5,0.7,6.6,0.4,9.2-0.9c2.6-1.3,4.2-3.5,4.8-6.4c0.6-2.9,0.2-5.3-1.2-7.1
		c-1.4-1.8-3.7-3.5-7-5.1c-3.2-1.5-5.3-2.8-6.2-3.7c-0.9-0.9-1.2-2.1-0.9-3.4c0.3-1.3,1-2.2,2.2-2.7c1.2-0.4,2.6-0.5,4.2-0.2
		s3.2,1,4.8,1.9c1.6,0.9,2.7,1.9,3.5,3l3.9-3.6c-1.3-1.6-2.8-2.9-4.8-4.1c-1.9-1.1-4-1.9-6.1-2.4c-3.3-0.7-6.2-0.4-8.8,0.7
		c-2.6,1.2-4.2,3.3-4.8,6.4c-0.6,3.1-0.1,5.6,1.5,7.5c0.8,1,1.8,1.9,3,2.6c1.2,0.8,2.9,1.7,5.2,2.8c2.3,1.1,3.9,2.1,4.7,3
		c0.8,0.9,1.1,2,0.9,3.3c-0.3,1.3-1,2.2-2.2,2.7c-1.2,0.6-2.7,0.6-4.5,0.3c-3.6-0.8-6.8-2.9-9.5-6.6l-4.4,3.5
		C-611.5,129.6-607.3,132.4-602.1,133.5z"/>
	<polygon id="XMLID_584_" points="-565.3,131 -551.1,139 -548.6,134.5 -562.8,126.5 -558.3,118.7 -542.6,127.6 -540,123 
		-560.7,111.2 -577.4,140.7 -556.1,152.7 -553.5,148 -569.7,138.9 	"/>
	<polygon id="XMLID_585_" points="-530.7,177.3 -526.8,173.5 -537.5,162.3 -516.9,142.7 -520.9,138.5 -545.4,162 	"/>
	<polygon id="XMLID_586_" points="-520.7,193.2 -508.3,186.8 -501.4,200.1 -496.7,197.7 -503.6,184.4 -495.3,180.1 -487.6,195 
		-482.8,192.6 -493.2,172.6 -523.3,188.1 	"/>
	
		<rect id="XMLID_587_" x="-509" y="217.5" transform="matrix(0.9717 -0.2362 0.2362 0.9717 -65.9737 -109.975)" width="33.9" height="5.7"/>
	<polygon id="XMLID_588_" points="-471,243.8 -504.9,243.5 -505.1,267.9 -499.7,267.9 -499.6,249.3 -490.5,249.3 -490.6,265.6 
		-485.5,265.6 -485.4,249.4 -476.5,249.4 -476.6,267.5 -471.2,267.6 	"/>
	<path id="XMLID_589_" d="M-509.2,284c-0.2,1-0.1,1.9,0.4,2.8c0.5,0.9,1.3,1.4,2.2,1.7c1,0.2,1.9,0.1,2.7-0.4s1.4-1.3,1.6-2.2
		c0.2-1,0.1-1.9-0.4-2.7c-0.5-0.8-1.2-1.4-2.2-1.6c-1-0.2-1.9-0.1-2.7,0.4C-508.4,282.3-508.9,283-509.2,284z"/>
	<polygon id="XMLID_590_" points="-516.7,306.9 -504.6,313.7 -512.9,328.4 -525,321.6 -527.8,326.6 -498.3,343.2 -495.5,338.2 
		-508.3,331 -500,316.4 -487.2,323.6 -484.4,318.6 -513.9,301.9 	"/>
	<path id="XMLID_591_" d="M-538.3,343.8c-3.7-0.3-7.2,1-10.4,3.7c-3.2,2.7-5,6-5.3,9.7c-0.3,3.7,1.1,7.5,4.2,11.2l12.3,14.5l4.4-3.7
		l-12.2-14.3c-2-2.4-3-4.7-3-7.1c0-2.4,1-4.4,3-6.2c2-1.7,4.2-2.4,6.6-2c2.4,0.4,4.5,1.7,6.5,4.1L-520,368l4.4-3.7l-12.3-14.5
		C-531.1,346.1-534.6,344.1-538.3,343.8z"/>
</g>
<g id="XMLID_199_">
	<g id="XMLID_315_">
		<g id="XMLID_326_">
			<path id="XMLID_44_" d="M-268.9,297.3c-3.2,0-6.5-0.7-9.5-2.3l1.4-2.7c7,3.5,15.4,2.2,20.9-3.3c7-7,7-18.5,0-25.5
				c-7-7-18.5-7-25.5,0c-5.7,5.7-6.9,14.7-2.9,21.7l-2.6,1.5c-4.7-8.2-3.3-18.6,3.4-25.3c8.2-8.2,21.6-8.2,29.8,0
				c8.2,8.2,8.2,21.6,0,29.8C-258.1,295.2-263.5,297.3-268.9,297.3z"/>
		</g>
		<g id="XMLID_323_">
			<path id="XMLID_41_" d="M-282.5,297.2c-1.9,0-3.7-0.7-5.1-2.1s-2.1-3.2-2.1-5.1s0.7-3.7,2.1-5.1c2.8-2.8,7.4-2.8,10.2,0
				c1.4,1.4,2.1,3.2,2.1,5.1s-0.7,3.7-2.1,5.1l0,0l0,0l0,0C-278.8,296.5-280.6,297.2-282.5,297.2z M-282.5,285.8
				c-1.1,0-2.1,0.4-3,1.2c-0.8,0.8-1.2,1.8-1.2,3s0.4,2.2,1.2,3s1.8,1.2,3,1.2s2.2-0.4,3-1.2l0,0c0.8-0.8,1.2-1.8,1.2-3
				s-0.4-2.2-1.2-3C-280.4,286.2-281.4,285.8-282.5,285.8z"/>
		</g>
	</g>
	<g id="XMLID_453_">
		<g id="XMLID_101_">
			<path id="XMLID_74_" d="M-214.8,276.8c0.8,0.8,1.2,1.8,1.2,3.1c0,1.1-0.3,2.1-0.9,2.9c-0.6,0.8-1.4,1.5-2.4,2
				c-1,0.5-2.3,0.7-3.7,0.7c-1.2,0-2.5-0.2-3.7-0.6c-1.2-0.4-2.3-0.9-3.1-1.5l1.8-3.4c0.7,0.6,1.5,1,2.3,1.4
				c0.8,0.3,1.6,0.5,2.4,0.5c0.8,0,1.4-0.2,1.8-0.5c0.4-0.3,0.6-0.8,0.6-1.3c0-0.6-0.2-1-0.6-1.3s-1-0.5-1.8-0.5h-3v-2.6l3.6-3.5
				h-6.1v-3.7h12v2.9l-4.3,3.8l0.8,0.2C-216.6,275.5-215.6,276-214.8,276.8z"/>
		</g>
		<g id="XMLID_111_">
			<path id="XMLID_70_" d="M-200,271.9c-1.2,0-2.1,0.3-2.7,1c-0.6,0.7-0.9,1.6-0.9,2.8c0.4-0.5,0.9-0.9,1.5-1.2
				c0.6-0.3,1.3-0.4,2.2-0.4c1.1,0,2,0.2,2.8,0.7s1.4,1.1,1.9,1.9c0.4,0.8,0.7,1.8,0.7,2.9c0,1.2-0.3,2.2-0.8,3.1
				c-0.5,0.9-1.3,1.6-2.2,2c-1,0.5-2.1,0.7-3.3,0.7c-1.5,0-2.8-0.3-3.9-1c-1.1-0.7-1.9-1.7-2.5-2.9c-0.6-1.3-0.9-2.8-0.9-4.5
				c0-1.8,0.3-3.3,1-4.7s1.5-2.4,2.7-3.1c1.2-0.7,2.5-1.1,4.1-1.1c1,0,2,0.1,3,0.4s1.8,0.6,2.5,1.1l-1.8,3.3
				C-197.6,272.3-198.8,271.9-200,271.9z M-202.6,278.1c-0.4,0.4-0.5,0.9-0.5,1.5c0,0.6,0.2,1.1,0.5,1.5c0.3,0.4,0.9,0.6,1.5,0.6
				c0.7,0,1.2-0.2,1.5-0.5s0.5-0.9,0.5-1.5c0-0.6-0.2-1.1-0.5-1.5c-0.3-0.4-0.8-0.5-1.5-0.5C-201.7,277.6-202.2,277.8-202.6,278.1z"
				/>
		</g>
		<g id="XMLID_115_">
			<path id="XMLID_66_" d="M-174.8,270.5c1.3,1.5,2,3.6,2,6.3s-0.7,4.9-2,6.4c-1.3,1.5-3.2,2.2-5.6,2.2c-2.5,0-4.3-0.7-5.7-2.2
				s-2-3.6-2-6.4c0-2.8,0.7-4.9,2-6.3s3.2-2.2,5.7-2.2C-178,268.3-176.1,269-174.8,270.5z M-182.4,273c-0.4,0.7-0.6,2-0.6,3.8
				s0.2,3.1,0.6,3.8c0.4,0.8,1,1.1,1.9,1.1c0.9,0,1.5-0.4,1.9-1.1s0.6-2,0.6-3.8s-0.2-3.1-0.6-3.8s-1-1.1-1.9-1.1
				C-181.3,271.9-182,272.3-182.4,273z"/>
		</g>
		<g id="XMLID_118_">
			<path id="XMLID_63_" d="M-160.1,270.7c-0.8,0-1.5,0.2-2,0.5s-0.8,0.8-0.8,1.5c0,0.7,0.3,1.2,0.8,1.6s1.7,0.7,3.4,1.2s3,1,3.9,1.8
				c0.9,0.8,1.3,1.9,1.3,3.3c0,1.5-0.6,2.7-1.7,3.6c-1.1,0.9-2.6,1.4-4.3,1.4c-2.6,0-5-0.9-7-2.7l1.8-2.1c1.7,1.5,3.5,2.2,5.3,2.2
				c0.9,0,1.6-0.2,2.2-0.6c0.5-0.4,0.8-0.9,0.8-1.6s-0.3-1.2-0.8-1.5s-1.4-0.7-2.6-1s-2.2-0.6-2.8-0.8c-0.6-0.2-1.2-0.6-1.7-1
				c-1-0.8-1.5-1.9-1.5-3.5c0-1.6,0.6-2.7,1.7-3.6c1.1-0.8,2.5-1.3,4.2-1.3c1.1,0,2.1,0.2,3.2,0.5s2,0.8,2.7,1.5l-1.5,2.1
				c-0.5-0.4-1.2-0.8-2-1.1C-158.5,270.8-159.3,270.7-160.1,270.7z"/>
		</g>
		<g id="XMLID_120_">
			<path id="XMLID_60_" d="M-133.8,268.5v2.7h-9v4.4h8v2.5h-8v4.5h9.2v2.7h-12.1v-16.8H-133.8z"/>
		</g>
		<g id="XMLID_122_">
			<path id="XMLID_57_" d="M-125.4,285.3v-16.8h2.8v14.1h7.7v2.7H-125.4z"/>
		</g>
		<g id="XMLID_124_">
			<path id="XMLID_54_" d="M-104.5,271.1v4.6h7.4v2.6h-7.4v6.9h-2.8v-16.8h11.2l0,2.6H-104.5z"/>
		</g>
		<g id="XMLID_127_">
			<path id="XMLID_51_" d="M-88.3,268.5h2.8v16.8h-2.8V268.5z"/>
		</g>
		<g id="XMLID_130_">
			<path id="XMLID_48_" d="M-64.5,268.5v2.7h-9v4.4h8v2.5h-8v4.5h9.2v2.7h-12.1v-16.8H-64.5z"/>
		</g>
	</g>
</g>
<g id="XMLID_403_">
	<path id="XMLID_98_" class="st0" d="M0,0h30.1v74.9H15.7V12.6H0V0z"/>
</g>
<g id="XMLID_408_">
	<path id="XMLID_96_" class="st1" d="M50.3,236.8v12.5H-5.2V239l28.2-29.1c2.7-2.7,4.9-5.4,6.5-8c1.6-2.6,2.5-4.9,2.5-6.8
		c0-2.7-1.1-4.8-3.2-6.4c-2.1-1.5-5.1-2.3-8.9-2.3c-3.3,0-6.8,0.8-10.5,2.5c-3.7,1.6-7.2,3.9-10.5,6.8l-5.7-11c4.4-3.4,9.1-6.1,14-8
		c4.9-1.9,9.8-2.8,14.7-2.8s9.3,0.8,13.1,2.4c3.8,1.6,6.7,3.8,8.8,6.7c2.1,2.9,3.2,6.2,3.2,10c0,3.6-1.2,7.5-3.7,11.6
		c-2.5,4.1-6,8.5-10.5,13.2l-19,19.3H50.3z"/>
</g>
<g id="XMLID_418_">
	<path id="XMLID_94_" class="st1" d="M43.1,390.2c4.1,3.6,6.2,8.2,6.2,14c0,4.7-1.2,8.9-3.6,12.5c-2.4,3.6-5.9,6.4-10.4,8.5
		s-9.7,3-15.7,3c-5.1,0-10.1-0.8-15-2.3c-5-1.5-9.2-3.6-12.7-6.2l5.7-11.1c3,2.5,6.3,4.4,10,5.7c3.6,1.3,7.3,2,11.1,2
		c5.2,0,9.3-1.1,12.3-3.2c3-2.1,4.4-5,4.4-8.7c0-3.7-1.5-6.5-4.4-8.5c-2.9-2-7.1-2.9-12.5-2.9H7v-8.7l20.1-19.5H-4.5l-0.1-12.2h50.1
		v8.9l-22.9,21.9l4,0.4C33.5,384.5,39,386.6,43.1,390.2z"/>
</g>
</svg>
