<?xml version="1.0" encoding="utf-8"?>
<!-- Generator: Adobe Illustrator 23.0.1, SVG Export Plug-In . SVG Version: 6.00 Build 0)  -->
<svg version="1.1" id="Layer_1" xmlns="http://www.w3.org/2000/svg" xmlns:xlink="http://www.w3.org/1999/xlink" x="0px" y="0px"
	 viewBox="0 0 56.9 75.5" style="enable-background:new 0 0 56.9 75.5;" xml:space="preserve">
<style type="text/css">
	.st0{fill:#FFFFFF;}
	.st1{fill:#65318F;}
</style>
<g id="XMLID_93_">
	<path id="XMLID_575_" d="M-691.3,196.3c10.2-13.5,9.2-32.9-3.1-45.2c-12.2-12.2-31.2-13.3-44.7-3.5c-20-34.8-23.6-77.7-9.3-115.5
		l-6.8-2.6c-15.2,40.3-11.2,86.1,10.6,123c-5.6,6.3-8.7,14.4-8.7,22.9c0,9.2,3.6,17.9,10.1,24.4c6.7,6.7,15.6,10.1,24.4,10.1
		c8,0,16-2.8,22.5-8.3c22.6,13.9,48.7,21.1,74.9,21.1c17,0,34.1-3,50.3-9.1l-2.6-6.8C-612.4,221.4-656,217.4-691.3,196.3z
		 M-738.1,194.8c-5.1-5.1-8-12-8-19.3c0-7.3,2.8-14.1,8-19.3c5.3-5.3,12.3-8,19.3-8c7,0,14,2.7,19.3,8c10.6,10.6,10.6,27.9,0,38.5
		C-710.2,205.4-727.4,205.4-738.1,194.8z"/>
	<path id="XMLID_576_" d="M-738.1-14.8l0.8,10l4.1,3.3l3.8-4.7c1-1.3,2-2,3.1-2.3c1-0.3,2,0,2.9,0.7c0.9,0.8,1.4,1.7,1.3,2.7
		c-0.1,1-0.6,2.2-1.6,3.4c-1,1.3-2.3,2.3-3.8,3.1c-1.5,0.8-3.2,1.4-5,1.8l3,7.2c2.1-0.5,4.2-1.4,6.4-2.9c2.2-1.4,4.1-3.1,5.7-5.1
		c1.8-2.2,3-4.4,3.6-6.6c0.6-2.2,0.6-4.3,0-6.3c-0.6-2-1.7-3.6-3.4-5c-2-1.6-4.1-2.3-6.3-2.1c-2.3,0.2-4.4,1.1-6.4,2.8l-1.3,1.1
		l-0.6-11.6l-4.5-3.6l-15.4,18.9l5.7,4.7L-738.1-14.8z"/>
	<path id="XMLID_579_" d="M-711.7-28.4c1.9,2.9,4.1,5,6.5,6.5c2.4,1.5,4.9,2.2,7.5,2.1c2.6-0.1,5.1-1,7.7-2.7c2.1-1.4,3.7-3,4.7-4.9
		c1.1-1.9,1.5-3.8,1.4-5.9s-0.8-4.1-2.2-6.1c-1.2-1.8-2.7-3.2-4.3-4.1c-1.7-0.9-3.4-1.3-5.3-1.1c-1.9,0.1-3.7,0.8-5.5,2
		c-1.4,0.9-2.5,2-3.2,3.1c-0.7,1.2-1.1,2.4-1.2,3.7c-1.4-2-2-4-1.7-5.8c0.3-1.8,1.4-3.3,3.3-4.7c2.2-1.5,4.5-2.1,6.9-2l-0.7-7.6
		c-1.7,0-3.5,0.4-5.5,1.1c-2,0.7-3.7,1.6-5.4,2.7c-2.6,1.8-4.5,3.9-5.7,6.5c-1.2,2.5-1.5,5.3-1.1,8.3
		C-714.9-34.3-713.7-31.4-711.7-28.4z M-701.1-32.8c0.2-1,0.8-1.9,2-2.7c1.1-0.7,2.1-1,3.1-0.8c1,0.2,1.8,0.8,2.5,1.9
		c0.8,1.1,1,2.2,0.8,3.2c-0.2,1-0.8,1.8-1.9,2.6c-1.1,0.8-2.2,1-3.2,0.8c-1-0.2-1.8-0.9-2.5-1.9C-701-30.8-701.3-31.8-701.1-32.8z"
		/>
	<path id="XMLID_582_" d="M-667.4-39.8c3.3,2.2,7.4,2.6,12.2,1.2c4.7-1.3,8-3.8,9.7-7.4c1.7-3.6,1.8-8.1,0.3-13.4
		c-1.5-5.3-3.9-9.1-7.3-11.2c-3.4-2.1-7.4-2.5-12.1-1.2c-4.8,1.4-8,3.8-9.8,7.4c-1.7,3.6-1.8,8-0.3,13.4
		C-673.2-45.8-670.8-42-667.4-39.8z M-665.7-61.6c0.3-1.7,1.4-2.7,3.1-3.2c1.7-0.5,3.1-0.1,4.3,1.1c1.1,1.2,2.2,3.6,3.2,7.1
		c1,3.5,1.3,6.1,1,7.7s-1.3,2.7-3,3.2c-1.7,0.5-3.2,0.1-4.4-1.1c-1.2-1.3-2.2-3.6-3.2-7.1C-665.8-57.4-666.1-60-665.7-61.6z"/>
	<path id="XMLID_583_" d="M-595.5-40.4c3.5,0.7,6.6,0.4,9.2-0.9c2.6-1.3,4.2-3.5,4.8-6.4c0.6-2.9,0.2-5.3-1.2-7.1
		c-1.4-1.8-3.7-3.5-7-5.1c-3.2-1.5-5.3-2.8-6.2-3.7c-0.9-0.9-1.2-2.1-0.9-3.4c0.3-1.3,1-2.2,2.2-2.7c1.2-0.4,2.6-0.5,4.2-0.2
		s3.2,1,4.8,1.9c1.6,0.9,2.7,1.9,3.5,3l3.9-3.6c-1.3-1.6-2.8-2.9-4.8-4.1c-1.9-1.1-4-1.9-6.1-2.4c-3.3-0.7-6.2-0.4-8.8,0.7
		c-2.6,1.2-4.2,3.3-4.8,6.4c-0.6,3.1-0.1,5.6,1.5,7.5c0.8,1,1.8,1.9,3,2.6c1.2,0.8,2.9,1.7,5.2,2.8c2.3,1.1,3.9,2.1,4.7,3
		c0.8,0.9,1.1,2,0.9,3.3c-0.3,1.3-1,2.2-2.2,2.7c-1.2,0.6-2.7,0.6-4.5,0.3c-3.6-0.8-6.8-2.9-9.5-6.6l-4.4,3.5
		C-604.9-44.2-600.7-41.5-595.5-40.4z"/>
	<polygon id="XMLID_584_" points="-558.6,-42.9 -544.5,-34.9 -542,-39.3 -556.1,-47.3 -551.7,-55.1 -535.9,-46.2 -533.3,-50.9 
		-554,-62.6 -570.7,-33.1 -549.5,-21.1 -546.8,-25.8 -563.1,-35 	"/>
	<polygon id="XMLID_585_" points="-524,3.5 -520.1,-0.3 -530.8,-11.5 -510.2,-31.1 -514.2,-35.3 -538.7,-11.9 	"/>
	<polygon id="XMLID_586_" points="-514,19.4 -501.6,13 -494.7,26.3 -490,23.9 -496.9,10.5 -488.7,6.3 -480.9,21.2 -476.2,18.8 
		-486.6,-1.3 -516.7,14.3 	"/>
	
		<rect id="XMLID_587_" x="-502.3" y="43.7" transform="matrix(0.9717 -0.2362 0.2362 0.9717 -24.7323 -113.318)" width="33.9" height="5.7"/>
	<polygon id="XMLID_588_" points="-464.4,69.9 -498.2,69.7 -498.4,94.1 -493.1,94.1 -492.9,75.4 -483.8,75.5 -484,91.8 -478.9,91.8 
		-478.8,75.6 -469.8,75.6 -469.9,93.7 -464.5,93.8 	"/>
	<path id="XMLID_589_" d="M-502.5,110.2c-0.2,1-0.1,1.9,0.4,2.8c0.5,0.9,1.3,1.4,2.2,1.7c1,0.2,1.9,0.1,2.7-0.4
		c0.8-0.5,1.4-1.3,1.6-2.2c0.2-1,0.1-1.9-0.4-2.7c-0.5-0.8-1.2-1.4-2.2-1.6c-1-0.2-1.9-0.1-2.7,0.4
		C-501.7,108.5-502.3,109.2-502.5,110.2z"/>
	<polygon id="XMLID_590_" points="-510.1,133.1 -498,139.9 -506.2,154.6 -518.3,147.8 -521.1,152.7 -491.6,169.4 -488.8,164.4 
		-501.6,157.2 -493.3,142.5 -480.5,149.8 -477.7,144.8 -507.2,128.1 	"/>
	<path id="XMLID_591_" d="M-531.7,170c-3.7-0.3-7.2,1-10.4,3.7c-3.2,2.7-5,6-5.3,9.7c-0.3,3.7,1.1,7.5,4.2,11.2l12.3,14.5l4.4-3.7
		l-12.2-14.3c-2-2.4-3-4.7-3-7.1c0-2.4,1-4.4,3-6.2c2-1.7,4.2-2.4,6.6-2c2.4,0.4,4.5,1.7,6.5,4.1l12.2,14.3l4.4-3.7l-12.3-14.5
		C-524.5,172.3-527.9,170.3-531.7,170z"/>
</g>
<g id="XMLID_199_">
	<g id="XMLID_315_">
		<g id="XMLID_326_">
			<path id="XMLID_44_" d="M-262.2,123.5c-3.2,0-6.5-0.7-9.5-2.3l1.4-2.7c7,3.5,15.4,2.2,20.9-3.3c7-7,7-18.5,0-25.5
				c-7-7-18.5-7-25.5,0c-5.7,5.7-6.9,14.7-2.9,21.7l-2.6,1.5c-4.7-8.2-3.3-18.6,3.4-25.3c8.2-8.2,21.6-8.2,29.8,0
				c8.2,8.2,8.2,21.6,0,29.8C-251.4,121.4-256.8,123.5-262.2,123.5z"/>
		</g>
		<g id="XMLID_323_">
			<path id="XMLID_41_" d="M-275.8,123.4c-1.9,0-3.7-0.7-5.1-2.1s-2.1-3.2-2.1-5.1s0.7-3.7,2.1-5.1c2.8-2.8,7.4-2.8,10.2,0
				c1.4,1.4,2.1,3.2,2.1,5.1s-0.7,3.7-2.1,5.1l0,0l0,0l0,0C-272.1,122.7-273.9,123.4-275.8,123.4z M-275.8,112c-1.1,0-2.1,0.4-3,1.2
				c-0.8,0.8-1.2,1.8-1.2,3s0.4,2.2,1.2,3s1.8,1.2,3,1.2s2.2-0.4,3-1.2l0,0c0.8-0.8,1.2-1.8,1.2-3s-0.4-2.2-1.2-3
				C-273.7,112.4-274.8,112-275.8,112z"/>
		</g>
	</g>
	<g id="XMLID_453_">
		<g id="XMLID_101_">
			<path id="XMLID_74_" d="M-208.1,103c0.8,0.8,1.2,1.8,1.2,3.1c0,1.1-0.3,2.1-0.9,2.9c-0.6,0.8-1.4,1.5-2.4,2
				c-1,0.5-2.3,0.7-3.7,0.7c-1.2,0-2.5-0.2-3.7-0.6c-1.2-0.4-2.3-0.9-3.1-1.5l1.8-3.4c0.7,0.6,1.5,1,2.3,1.4
				c0.8,0.3,1.6,0.5,2.4,0.5c0.8,0,1.4-0.2,1.8-0.5c0.4-0.3,0.6-0.8,0.6-1.3c0-0.6-0.2-1-0.6-1.3s-1-0.5-1.8-0.5h-3v-2.6l3.6-3.5
				h-6.1v-3.7h12v2.9l-4.3,3.8l0.8,0.2C-209.9,101.7-208.9,102.2-208.1,103z"/>
		</g>
		<g id="XMLID_111_">
			<path id="XMLID_70_" d="M-193.4,98.1c-1.2,0-2.1,0.3-2.7,1c-0.6,0.7-0.9,1.6-0.9,2.8c0.4-0.5,0.9-0.9,1.5-1.2
				c0.6-0.3,1.3-0.4,2.2-0.4c1.1,0,2,0.2,2.8,0.7s1.4,1.1,1.9,1.9c0.4,0.8,0.7,1.8,0.7,2.9c0,1.2-0.3,2.2-0.8,3.1
				c-0.5,0.9-1.3,1.6-2.2,2c-1,0.5-2.1,0.7-3.3,0.7c-1.5,0-2.8-0.3-3.9-1c-1.1-0.7-1.9-1.7-2.5-2.9c-0.6-1.3-0.9-2.8-0.9-4.5
				c0-1.8,0.3-3.3,1-4.7s1.5-2.4,2.7-3.1c1.2-0.7,2.5-1.1,4.1-1.1c1,0,2,0.1,3,0.4s1.8,0.6,2.5,1.1l-1.8,3.3
				C-191,98.4-192.1,98.1-193.4,98.1z M-195.9,104.3c-0.4,0.4-0.5,0.9-0.5,1.5c0,0.6,0.2,1.1,0.5,1.5c0.3,0.4,0.9,0.6,1.5,0.6
				c0.7,0,1.2-0.2,1.5-0.5s0.5-0.9,0.5-1.5c0-0.6-0.2-1.1-0.5-1.5c-0.3-0.4-0.8-0.5-1.5-0.5C-195,103.8-195.5,104-195.9,104.3z"/>
		</g>
		<g id="XMLID_115_">
			<path id="XMLID_66_" d="M-168.2,96.7c1.3,1.5,2,3.6,2,6.3s-0.7,4.9-2,6.4c-1.3,1.5-3.2,2.2-5.6,2.2c-2.5,0-4.3-0.7-5.7-2.2
				s-2-3.6-2-6.4c0-2.8,0.7-4.9,2-6.3s3.2-2.2,5.7-2.2C-171.3,94.5-169.5,95.2-168.2,96.7z M-175.7,99.2c-0.4,0.7-0.6,2-0.6,3.8
				s0.2,3.1,0.6,3.8c0.4,0.8,1,1.1,1.9,1.1c0.9,0,1.5-0.4,1.9-1.1s0.6-2,0.6-3.8s-0.2-3.1-0.6-3.8s-1-1.1-1.9-1.1
				C-174.7,98.1-175.3,98.5-175.7,99.2z"/>
		</g>
		<g id="XMLID_118_">
			<path id="XMLID_63_" d="M-153.5,96.9c-0.8,0-1.5,0.2-2,0.5s-0.8,0.8-0.8,1.5c0,0.7,0.3,1.2,0.8,1.6s1.7,0.7,3.4,1.2s3,1,3.9,1.8
				c0.9,0.8,1.3,1.9,1.3,3.3c0,1.5-0.6,2.7-1.7,3.6c-1.1,0.9-2.6,1.4-4.3,1.4c-2.6,0-5-0.9-7-2.7l1.8-2.1c1.7,1.5,3.5,2.2,5.3,2.2
				c0.9,0,1.6-0.2,2.2-0.6c0.5-0.4,0.8-0.9,0.8-1.6s-0.3-1.2-0.8-1.5s-1.4-0.7-2.6-1s-2.2-0.6-2.8-0.8c-0.6-0.2-1.2-0.6-1.7-1
				c-1-0.8-1.5-1.9-1.5-3.5c0-1.6,0.6-2.7,1.7-3.6c1.1-0.8,2.5-1.3,4.2-1.3c1.1,0,2.1,0.2,3.2,0.5s2,0.8,2.7,1.5l-1.5,2.1
				c-0.5-0.4-1.2-0.8-2-1.1C-151.8,97-152.7,96.9-153.5,96.9z"/>
		</g>
		<g id="XMLID_120_">
			<path id="XMLID_60_" d="M-127.1,94.7v2.7h-9v4.4h8v2.5h-8v4.5h9.2v2.7h-12.1V94.7H-127.1z"/>
		</g>
		<g id="XMLID_122_">
			<path id="XMLID_57_" d="M-118.7,111.4V94.7h2.8v14.1h7.7v2.7H-118.7z"/>
		</g>
		<g id="XMLID_124_">
			<path id="XMLID_54_" d="M-97.8,97.3v4.6h7.4v2.6h-7.4v6.9h-2.8V94.7h11.2l0,2.6H-97.8z"/>
		</g>
		<g id="XMLID_127_">
			<path id="XMLID_51_" d="M-81.6,94.7h2.8v16.8h-2.8V94.7z"/>
		</g>
		<g id="XMLID_130_">
			<path id="XMLID_48_" d="M-57.8,94.7v2.7h-9v4.4h8v2.5h-8v4.5h9.2v2.7h-12.1V94.7H-57.8z"/>
		</g>
	</g>
</g>
<g id="XMLID_403_">
	<path id="XMLID_98_" class="st0" d="M6.7-173.8h30.1v74.9H22.4v-62.3H6.7V-173.8z"/>
</g>
<g id="XMLID_408_">
	<path id="XMLID_96_" class="st1" d="M56.9,63v12.5H1.5V65.2l28.2-29.1c2.7-2.7,4.9-5.4,6.5-8c1.6-2.6,2.5-4.9,2.5-6.8
		c0-2.7-1.1-4.8-3.2-6.4c-2.1-1.5-5.1-2.3-8.9-2.3c-3.3,0-6.8,0.8-10.5,2.5c-3.7,1.6-7.2,3.9-10.5,6.8L0,10.8c4.4-3.4,9.1-6.1,14-8
		C18.8,0.9,23.8,0,28.7,0s9.3,0.8,13.1,2.4c3.8,1.6,6.7,3.8,8.8,6.7c2.1,2.9,3.2,6.2,3.2,10c0,3.6-1.2,7.5-3.7,11.6
		c-2.5,4.1-6,8.5-10.5,13.2L20.4,63H56.9z"/>
</g>
<g id="XMLID_418_">
	<path id="XMLID_94_" class="st0" d="M49.8,216.3c4.1,3.6,6.2,8.2,6.2,14c0,4.7-1.2,8.9-3.6,12.5c-2.4,3.6-5.9,6.4-10.4,8.5
		s-9.7,3-15.7,3c-5.1,0-10.1-0.8-15-2.3c-5-1.5-9.2-3.6-12.7-6.2l5.7-11.1c3,2.5,6.3,4.4,10,5.7c3.6,1.3,7.3,2,11.1,2
		c5.2,0,9.3-1.1,12.3-3.2c3-2.1,4.4-5,4.4-8.7c0-3.7-1.5-6.5-4.4-8.5c-2.9-2-7.1-2.9-12.5-2.9H13.6v-8.7L33.8,191H2.2l-0.1-12.2
		h50.1v8.9l-22.9,21.9l4,0.4C40.1,210.7,45.7,212.8,49.8,216.3z"/>
</g>
</svg>
