<?xml version="1.0" encoding="utf-8"?>
<!-- Generator: Adobe Illustrator 23.0.1, SVG Export Plug-In . SVG Version: 6.00 Build 0)  -->
<svg version="1.1" id="Layer_1" xmlns="http://www.w3.org/2000/svg" xmlns:xlink="http://www.w3.org/1999/xlink" x="0px" y="0px"
	 viewBox="0 0 57.5 75.5" style="enable-background:new 0 0 57.5 75.5;" xml:space="preserve">
<style type="text/css">
	.st0{fill:#FFFFFF;}
	.st1{fill:#65318F;}
</style>
<g id="XMLID_93_">
	<path id="XMLID_575_" d="M-689.7,17.5c10.2-13.5,9.2-32.9-3.1-45.2c-12.2-12.2-31.2-13.3-44.7-3.5c-20-34.8-23.6-77.7-9.3-115.5
		l-6.8-2.6c-15.2,40.3-11.2,86.1,10.6,123c-5.6,6.3-8.7,14.4-8.7,22.9c0,9.2,3.6,17.9,10.1,24.4c6.7,6.7,15.6,10.1,24.4,10.1
		c8,0,16-2.8,22.5-8.3c22.6,13.9,48.7,21.1,74.9,21.1c17,0,34.1-3,50.3-9.1l-2.6-6.8C-610.8,42.6-654.5,38.6-689.7,17.5z M-736.5,16
		c-5.1-5.1-8-12-8-19.3c0-7.3,2.8-14.1,8-19.3c5.3-5.3,12.3-8,19.3-8c7,0,14,2.7,19.3,8c10.6,10.6,10.6,27.9,0,38.5
		C-708.6,26.6-725.9,26.6-736.5,16z"/>
	<path id="XMLID_576_" d="M-736.6-193.6l0.8,10l4.1,3.3l3.8-4.7c1-1.3,2-2,3.1-2.3c1-0.3,2,0,2.9,0.7c0.9,0.8,1.4,1.7,1.3,2.7
		c-0.1,1-0.6,2.2-1.6,3.4c-1,1.3-2.3,2.3-3.8,3.1c-1.5,0.8-3.2,1.4-5,1.8l3,7.2c2.1-0.5,4.2-1.4,6.4-2.9c2.2-1.4,4.1-3.1,5.7-5.1
		c1.8-2.2,3-4.4,3.6-6.6c0.6-2.2,0.6-4.3,0-6.3c-0.6-2-1.7-3.6-3.4-5c-2-1.6-4.1-2.3-6.3-2.1c-2.3,0.2-4.4,1.1-6.4,2.8l-1.3,1.1
		l-0.6-11.6l-4.5-3.6l-15.4,18.9l5.7,4.7L-736.6-193.6z"/>
	<path id="XMLID_579_" d="M-710.1-207.2c1.9,2.9,4.1,5,6.5,6.5c2.4,1.5,4.9,2.2,7.5,2.1c2.6-0.1,5.1-1,7.7-2.7
		c2.1-1.4,3.7-3,4.7-4.9c1.1-1.9,1.5-3.8,1.4-5.9c-0.1-2.1-0.8-4.1-2.2-6.1c-1.2-1.8-2.7-3.2-4.3-4.1c-1.7-0.9-3.4-1.3-5.3-1.1
		c-1.9,0.1-3.7,0.8-5.5,2c-1.4,0.9-2.5,2-3.2,3.1c-0.7,1.2-1.1,2.4-1.2,3.7c-1.4-2-2-4-1.7-5.8c0.3-1.8,1.4-3.3,3.3-4.7
		c2.2-1.5,4.5-2.1,6.9-2l-0.7-7.6c-1.7,0-3.5,0.4-5.5,1.1c-2,0.7-3.7,1.6-5.4,2.7c-2.6,1.8-4.5,3.9-5.7,6.5
		c-1.2,2.5-1.5,5.3-1.1,8.3C-713.3-213.1-712.1-210.1-710.1-207.2z M-699.5-211.6c0.2-1,0.8-1.9,2-2.7c1.1-0.7,2.1-1,3.1-0.8
		c1,0.2,1.8,0.8,2.5,1.9c0.8,1.1,1,2.2,0.8,3.2c-0.2,1-0.8,1.8-1.9,2.6c-1.1,0.8-2.2,1-3.2,0.8c-1-0.2-1.8-0.9-2.5-1.9
		C-699.5-209.6-699.7-210.6-699.5-211.6z"/>
	<path id="XMLID_582_" d="M-665.9-218.6c3.3,2.2,7.4,2.6,12.2,1.2c4.7-1.3,8-3.8,9.7-7.4c1.7-3.6,1.8-8.1,0.3-13.4
		c-1.5-5.3-3.9-9.1-7.3-11.2c-3.4-2.1-7.4-2.5-12.1-1.2c-4.8,1.4-8,3.8-9.8,7.4c-1.7,3.6-1.8,8-0.3,13.4
		C-671.6-224.5-669.2-220.8-665.9-218.6z M-664.2-240.4c0.3-1.7,1.4-2.7,3.1-3.2c1.7-0.5,3.1-0.1,4.3,1.1c1.1,1.2,2.2,3.6,3.2,7.1
		c1,3.5,1.3,6.1,1,7.7c-0.3,1.7-1.3,2.7-3,3.2c-1.7,0.5-3.2,0.1-4.4-1.1c-1.2-1.3-2.2-3.6-3.2-7.1
		C-664.2-236.2-664.5-238.8-664.2-240.4z"/>
	<path id="XMLID_583_" d="M-593.9-219.1c3.5,0.7,6.6,0.4,9.2-0.9c2.6-1.3,4.2-3.5,4.8-6.4c0.6-2.9,0.2-5.3-1.2-7.1
		c-1.4-1.8-3.7-3.5-7-5.1c-3.2-1.5-5.3-2.8-6.2-3.7c-0.9-0.9-1.2-2.1-0.9-3.4c0.3-1.3,1-2.2,2.2-2.7c1.2-0.4,2.6-0.5,4.2-0.2
		c1.6,0.3,3.2,1,4.8,1.9c1.6,0.9,2.7,1.9,3.5,3l3.9-3.6c-1.3-1.6-2.8-2.9-4.8-4.1c-1.9-1.1-4-1.9-6.1-2.4c-3.3-0.7-6.2-0.4-8.8,0.7
		c-2.6,1.2-4.2,3.3-4.8,6.4c-0.6,3.1-0.1,5.6,1.5,7.5c0.8,1,1.8,1.9,3,2.6c1.2,0.8,2.9,1.7,5.2,2.8c2.3,1.1,3.9,2.1,4.7,3
		c0.8,0.9,1.1,2,0.9,3.3c-0.3,1.3-1,2.2-2.2,2.7c-1.2,0.6-2.7,0.6-4.5,0.3c-3.6-0.8-6.8-2.9-9.5-6.6l-4.4,3.5
		C-603.3-223-599.1-220.2-593.9-219.1z"/>
	<polygon id="XMLID_584_" points="-557,-221.6 -542.9,-213.6 -540.4,-218.1 -554.5,-226.1 -550.1,-233.9 -534.4,-225 -531.7,-229.6 
		-552.4,-241.4 -569.1,-211.9 -547.9,-199.9 -545.3,-204.6 -561.5,-213.8 	"/>
	<polygon id="XMLID_585_" points="-522.5,-175.3 -518.6,-179.1 -529.3,-190.3 -508.7,-209.9 -512.6,-214.1 -537.1,-190.6 	"/>
	<polygon id="XMLID_586_" points="-512.5,-159.4 -500.1,-165.8 -493.2,-152.5 -488.5,-154.9 -495.4,-168.2 -487.1,-172.5 
		-479.4,-157.6 -474.6,-160 -485,-180 -515.1,-164.5 	"/>
	
		<rect id="XMLID_587_" x="-500.8" y="-135.1" transform="matrix(0.9717 -0.2362 0.2362 0.9717 17.5369 -118.0095)" width="33.9" height="5.7"/>
	<polygon id="XMLID_588_" points="-462.8,-108.8 -496.7,-109.1 -496.9,-84.7 -491.5,-84.7 -491.4,-103.3 -482.3,-103.3 -482.4,-87 
		-477.3,-87 -477.2,-103.2 -468.2,-103.2 -468.4,-85.1 -463,-85 	"/>
	<path id="XMLID_589_" d="M-500.9-68.6c-0.2,1-0.1,1.9,0.4,2.8c0.5,0.9,1.3,1.4,2.2,1.7c1,0.2,1.9,0.1,2.7-0.4
		c0.8-0.5,1.4-1.3,1.6-2.2c0.2-1,0.1-1.9-0.4-2.7c-0.5-0.8-1.2-1.4-2.2-1.6c-1-0.2-1.9-0.1-2.7,0.4
		C-500.1-70.3-500.7-69.6-500.9-68.6z"/>
	<polygon id="XMLID_590_" points="-508.5,-45.7 -496.4,-38.9 -504.7,-24.2 -516.8,-31 -519.6,-26 -490.1,-9.4 -487.3,-14.4 
		-500.1,-21.6 -491.8,-36.2 -479,-29 -476.2,-34 -505.7,-50.7 	"/>
	<path id="XMLID_591_" d="M-530.1-8.8c-3.7-0.3-7.2,1-10.4,3.7c-3.2,2.7-5,6-5.3,9.7c-0.3,3.7,1.1,7.5,4.2,11.2l12.3,14.5l4.4-3.7
		l-12.2-14.3c-2-2.4-3-4.7-3-7.1c0-2.4,1-4.4,3-6.2c2-1.7,4.2-2.4,6.6-2c2.4,0.4,4.5,1.7,6.5,4.1l12.2,14.3l4.4-3.7l-12.3-14.5
		C-522.9-6.5-526.4-8.5-530.1-8.8z"/>
</g>
<g id="XMLID_199_">
	<g id="XMLID_315_">
		<g id="XMLID_326_">
			<path id="XMLID_44_" d="M-260.7-55.3c-3.2,0-6.5-0.7-9.5-2.3l1.4-2.7c7,3.5,15.4,2.2,20.9-3.3c7-7,7-18.5,0-25.5
				c-7-7-18.5-7-25.5,0c-5.7,5.7-6.9,14.7-2.9,21.7l-2.6,1.5c-4.7-8.2-3.3-18.6,3.4-25.3c8.2-8.2,21.6-8.2,29.8,0
				c8.2,8.2,8.2,21.6,0,29.8C-249.9-57.4-255.2-55.3-260.7-55.3z"/>
		</g>
		<g id="XMLID_323_">
			<path id="XMLID_41_" d="M-274.3-55.4c-1.9,0-3.7-0.7-5.1-2.1s-2.1-3.2-2.1-5.1s0.7-3.7,2.1-5.1c2.8-2.8,7.4-2.8,10.2,0
				c1.4,1.4,2.1,3.2,2.1,5.1s-0.7,3.7-2.1,5.1l0,0l0,0l0,0C-270.6-56.1-272.4-55.4-274.3-55.4z M-274.3-66.8c-1.1,0-2.1,0.4-3,1.2
				c-0.8,0.8-1.2,1.8-1.2,3s0.4,2.2,1.2,3s1.8,1.2,3,1.2s2.2-0.4,3-1.2l0,0c0.8-0.8,1.2-1.8,1.2-3s-0.4-2.2-1.2-3
				C-272.1-66.4-273.2-66.8-274.3-66.8z"/>
		</g>
	</g>
	<g id="XMLID_453_">
		<g id="XMLID_101_">
			<path id="XMLID_74_" d="M-206.6-75.8c0.8,0.8,1.2,1.8,1.2,3.1c0,1.1-0.3,2.1-0.9,2.9c-0.6,0.8-1.4,1.5-2.4,2
				c-1,0.5-2.3,0.7-3.7,0.7c-1.2,0-2.5-0.2-3.7-0.6c-1.2-0.4-2.3-0.9-3.1-1.5l1.8-3.4c0.7,0.6,1.5,1,2.3,1.4
				c0.8,0.3,1.6,0.5,2.4,0.5c0.8,0,1.4-0.2,1.8-0.5c0.4-0.3,0.6-0.8,0.6-1.3c0-0.6-0.2-1-0.6-1.3s-1-0.5-1.8-0.5h-3v-2.6l3.6-3.5
				h-6.1v-3.7h12v2.9l-4.3,3.8l0.8,0.2C-208.4-77.1-207.4-76.6-206.6-75.8z"/>
		</g>
		<g id="XMLID_111_">
			<path id="XMLID_70_" d="M-191.8-80.7c-1.2,0-2.1,0.3-2.7,1c-0.6,0.7-0.9,1.6-0.9,2.8c0.4-0.5,0.9-0.9,1.5-1.2
				c0.6-0.3,1.3-0.4,2.2-0.4c1.1,0,2,0.2,2.8,0.7s1.4,1.1,1.9,1.9c0.4,0.8,0.7,1.8,0.7,2.9c0,1.2-0.3,2.2-0.8,3.1
				c-0.5,0.9-1.3,1.6-2.2,2c-1,0.5-2.1,0.7-3.3,0.7c-1.5,0-2.8-0.3-3.9-1c-1.1-0.7-1.9-1.7-2.5-2.9c-0.6-1.3-0.9-2.8-0.9-4.5
				c0-1.8,0.3-3.3,1-4.7s1.5-2.4,2.7-3.1c1.2-0.7,2.5-1.1,4.1-1.1c1,0,2,0.1,3,0.4s1.8,0.6,2.5,1.1l-1.8,3.3
				C-189.4-80.4-190.5-80.7-191.8-80.7z M-194.3-74.5c-0.4,0.4-0.5,0.9-0.5,1.5c0,0.6,0.2,1.1,0.5,1.5c0.3,0.4,0.9,0.6,1.5,0.6
				c0.7,0,1.2-0.2,1.5-0.5s0.5-0.9,0.5-1.5c0-0.6-0.2-1.1-0.5-1.5c-0.3-0.4-0.8-0.5-1.5-0.5C-193.5-75-194-74.8-194.3-74.5z"/>
		</g>
		<g id="XMLID_115_">
			<path id="XMLID_66_" d="M-166.6-82.1c1.3,1.5,2,3.6,2,6.3s-0.7,4.9-2,6.4c-1.3,1.5-3.2,2.2-5.6,2.2c-2.5,0-4.3-0.7-5.7-2.2
				s-2-3.6-2-6.4c0-2.8,0.7-4.9,2-6.3s3.2-2.2,5.7-2.2C-169.8-84.3-167.9-83.6-166.6-82.1z M-174.1-79.6c-0.4,0.7-0.6,2-0.6,3.8
				s0.2,3.1,0.6,3.8c0.4,0.8,1,1.1,1.9,1.1c0.9,0,1.5-0.4,1.9-1.1s0.6-2,0.6-3.8s-0.2-3.1-0.6-3.8s-1-1.1-1.9-1.1
				C-173.1-80.7-173.8-80.3-174.1-79.6z"/>
		</g>
		<g id="XMLID_118_">
			<path id="XMLID_63_" d="M-151.9-81.9c-0.8,0-1.5,0.2-2,0.5s-0.8,0.8-0.8,1.5c0,0.7,0.3,1.2,0.8,1.6s1.7,0.7,3.4,1.2s3,1,3.9,1.8
				c0.9,0.8,1.3,1.9,1.3,3.3c0,1.5-0.6,2.7-1.7,3.6c-1.1,0.9-2.6,1.4-4.3,1.4c-2.6,0-5-0.9-7-2.7l1.8-2.1c1.7,1.5,3.5,2.2,5.3,2.2
				c0.9,0,1.6-0.2,2.2-0.6c0.5-0.4,0.8-0.9,0.8-1.6s-0.3-1.2-0.8-1.5s-1.4-0.7-2.6-1s-2.2-0.6-2.8-0.8c-0.6-0.2-1.2-0.6-1.7-1
				c-1-0.8-1.5-1.9-1.5-3.5c0-1.6,0.6-2.7,1.7-3.6c1.1-0.8,2.5-1.3,4.2-1.3c1.1,0,2.1,0.2,3.2,0.5s2,0.8,2.7,1.5l-1.5,2.1
				c-0.5-0.4-1.2-0.8-2-1.1C-150.3-81.8-151.1-81.9-151.9-81.9z"/>
		</g>
		<g id="XMLID_120_">
			<path id="XMLID_60_" d="M-125.6-84.1v2.7h-9v4.4h8v2.5h-8v4.5h9.2v2.7h-12.1v-16.8H-125.6z"/>
		</g>
		<g id="XMLID_122_">
			<path id="XMLID_57_" d="M-117.2-67.4v-16.8h2.8V-70h7.7v2.7H-117.2z"/>
		</g>
		<g id="XMLID_124_">
			<path id="XMLID_54_" d="M-96.2-81.5v4.6h7.4v2.6h-7.4v6.9h-2.8v-16.8h11.2l0,2.6H-96.2z"/>
		</g>
		<g id="XMLID_127_">
			<path id="XMLID_51_" d="M-80.1-84.1h2.8v16.8h-2.8V-84.1z"/>
		</g>
		<g id="XMLID_130_">
			<path id="XMLID_48_" d="M-56.3-84.1v2.7h-9v4.4h8v2.5h-8v4.5h9.2v2.7h-12.1v-16.8H-56.3z"/>
		</g>
	</g>
</g>
<g id="XMLID_403_">
	<path id="XMLID_98_" class="st0" d="M8.2-352.6h30.1v74.9H23.9V-340H8.2V-352.6z"/>
</g>
<g id="XMLID_408_">
	<path id="XMLID_96_" class="st0" d="M58.5-115.8v12.5H3v-10.4l28.2-29.1c2.7-2.7,4.9-5.4,6.5-8c1.6-2.6,2.5-4.9,2.5-6.8
		c0-2.7-1.1-4.8-3.2-6.4c-2.1-1.5-5.1-2.3-8.9-2.3c-3.3,0-6.8,0.8-10.5,2.5c-3.7,1.6-7.2,3.9-10.5,6.8l-5.7-11c4.4-3.4,9.1-6.1,14-8
		c4.9-1.9,9.8-2.8,14.7-2.8s9.3,0.8,13.1,2.4c3.8,1.6,6.7,3.8,8.8,6.7c2.1,2.9,3.2,6.2,3.2,10c0,3.6-1.2,7.5-3.7,11.6
		c-2.5,4.1-6,8.5-10.5,13.2l-19,19.3H58.5z"/>
</g>
<g id="XMLID_418_">
	<path id="XMLID_94_" class="st1" d="M51.3,37.6c4.1,3.6,6.2,8.2,6.2,14c0,4.7-1.2,8.9-3.6,12.5c-2.4,3.6-5.9,6.4-10.4,8.5
		s-9.7,3-15.7,3c-5.1,0-10.1-0.8-15-2.3c-5-1.5-9.2-3.6-12.7-6.2L5.7,56c3,2.5,6.3,4.4,10,5.7c3.6,1.3,7.3,2,11.1,2
		c5.2,0,9.3-1.1,12.3-3.2c3-2.1,4.4-5,4.4-8.7c0-3.7-1.5-6.5-4.4-8.5c-2.9-2-7.1-2.9-12.5-2.9H15.2v-8.7l20.1-19.5H3.7L3.6,0h50.1
		v8.9L30.8,30.8l4,0.4C41.7,31.9,47.2,34,51.3,37.6z"/>
</g>
</svg>
