<?xml version="1.0" encoding="utf-8"?>
<!-- Generator: Adobe Illustrator 19.0.0, SVG Export Plug-In . SVG Version: 6.00 Build 0)  -->
<svg version="1.1" id="Layer_1" xmlns="http://www.w3.org/2000/svg" xmlns:xlink="http://www.w3.org/1999/xlink" x="0px" y="0px"
	 viewBox="0 0 48.5 48.8" style="enable-background:new 0 0 48.5 48.8;" xml:space="preserve">
<path id="XMLID_60_"  d="M10,24.4c0-2.2-0.1-4.4,0-6.6c0.2-4.4,3.3-7.6,7.7-7.7c4.4-0.1,8.7-0.1,13.1,0
	c4.2,0.1,7.5,3.3,7.6,7.5c0.1,4.5,0.1,9,0,13.4c-0.1,4.2-3.3,7.4-7.5,7.5c-4.5,0.1-9,0.1-13.5,0c-4.2-0.1-7.3-3.3-7.4-7.5
	C9.9,28.9,10,26.6,10,24.4C10,24.4,10,24.4,10,24.4z M36.1,24.4c-0.1-2.3-0.1-4.6-0.2-6.9c-0.2-2.5-1.7-4.2-4.2-4.6
	c-1.3-0.2-2.6-0.3-3.9-0.3c-3.5,0-6.9,0-10.4,0.2c-2.5,0.1-4.2,1.7-4.7,4.2c-0.2,1.1-0.3,2.3-0.3,3.5c0,3.6,0,7.2,0.2,10.8
	c0.1,2.7,2,4.7,4.8,4.8c4.5,0.1,9,0.1,13.6,0c2.8-0.1,4.7-2,4.9-4.8C36,28.9,36,26.7,36.1,24.4z"/>
<path id="XMLID_53_"  d="M24.2,17c4.1,0,7.4,3.3,7.4,7.4c0,4.1-3.3,7.4-7.4,7.3c-4.1,0-7.3-3.3-7.3-7.5
	C16.9,20.3,20.2,17,24.2,17z M19.4,24.4c0.1,2.7,2.2,4.8,4.8,4.8c2.6,0,4.8-2.2,4.8-4.8c-0.1-2.7-2.2-4.8-4.8-4.8
	C21.5,19.6,19.3,21.8,19.4,24.4z"/>
<path id="XMLID_39_"  d="M31.9,18.4c-1,0-1.7-0.7-1.7-1.7c0-1,0.7-1.8,1.7-1.8c0.9,0,1.7,0.8,1.7,1.7
	C33.6,17.7,32.9,18.4,31.9,18.4z"/>
</svg>
