<?xml version="1.0" encoding="utf-8"?>
<!-- Generator: Adobe Illustrator 23.0.1, SVG Export Plug-In . SVG Version: 6.00 Build 0)  -->
<svg version="1.1" id="Réteg_1" xmlns="http://www.w3.org/2000/svg" xmlns:xlink="http://www.w3.org/1999/xlink" x="0px" y="0px"
	 viewBox="0 0 11.9 12.3" style="enable-background:new 0 0 11.9 12.3;" xml:space="preserve">
<style type="text/css">
	.st0{fill:#1C1C1C;stroke:#000000;stroke-width:0.25;stroke-miterlimit:10;}
</style>
<title>Rajztábla 7</title>
<path class="st0" d="M9.5,9.7L7.3,7.4C8.7,6,8.7,3.7,7.3,2.3S3.6,0.8,2.2,2.2S0.7,5.9,2.1,7.4c0.7,0.7,1.6,1.1,2.6,1.1
	c0.8,0,1.6-0.3,2.3-0.8l2.3,2.3L9.5,9.7z M1.4,4.8c0-1.8,1.5-3.3,3.3-3.3S8,3,8,4.8S6.5,8.1,4.7,8.1l0,0C2.9,8.1,1.4,6.6,1.4,4.8z"
	/>
</svg>
