<?xml version="1.0" encoding="utf-8"?>
<!-- Generator: Adobe Illustrator 19.0.0, SVG Export Plug-In . SVG Version: 6.00 Build 0)  -->
<svg version="1.1" id="Layer_1" xmlns="http://www.w3.org/2000/svg" xmlns:xlink="http://www.w3.org/1999/xlink" x="0px" y="0px"
	 viewBox="0 0 48.5 48.8" style="enable-background:new 0 0 48.5 48.8;" xml:space="preserve">
<style type="text/css">
	.st0{fill:#FFFFFF;}
</style>
<path id="XMLID_41_" class="st0" d="M14.5,9.3l2.1,7.7v4.6h1.5v-4.6l2.2-7.7h-1.6l-1.2,4.8h-0.1l-1.1-4.8H14.5z M23.6,12.4
	c-0.7,0-1.3,0.2-1.7,0.6c-0.4,0.4-0.6,0.9-0.6,1.6v4.6c0,0.7,0.2,1.3,0.6,1.8c0.4,0.4,1,0.7,1.7,0.7c0.7,0,1.3-0.2,1.7-0.6
	c0.4-0.4,0.6-1,0.6-1.8v-4.6c0-0.7-0.2-1.2-0.6-1.6C24.8,12.6,24.3,12.4,23.6,12.4z M27.4,12.4V20c0,0.5,0.1,1,0.3,1.3
	c0.2,0.3,0.4,0.4,0.8,0.4c0.3,0,0.6-0.1,1-0.3c0.3-0.2,0.6-0.5,0.9-0.8v1.1h1.6v-9.3h-1.5v6.8c-0.2,0.2-0.5,0.4-0.7,0.5
	c-0.2,0.1-0.3,0.2-0.4,0.2c-0.1,0-0.3-0.1-0.3-0.1C29,19.7,29,19.5,29,19.3v-6.9H27.4z M23.6,14c0.2,0,0.5,0,0.6,0.1
	c0.1,0.1,0.2,0.3,0.2,0.5v4.8c0,0.2-0.1,0.4-0.2,0.5c-0.1,0.1-0.4,0.2-0.6,0.2c-0.2,0-0.5-0.1-0.6-0.2c-0.1-0.1-0.2-0.3-0.2-0.5
	c0,0,0,0,0,0v-4.6c0,0,0,0,0,0v-0.1c0-0.2,0.1-0.4,0.2-0.5C23.1,14,23.4,14,23.6,14z M13.5,23.2c-1.7,0-3.1,1.4-3.1,3.1v10.8
	c0,1.7,1.4,3.1,3.1,3.1h21.6c1.7,0,3.1-1.4,3.1-3.1V26.3c0-1.7-1.4-3.1-3.1-3.1H13.5z M13.4,24.8h4.9c0.1,0,0.2,0.1,0.2,0.2v1.4
	c0,0.1-0.1,0.2-0.2,0.2h-1.4V37c0,0.1-0.1,0.2-0.2,0.2h-1.5c-0.1,0-0.2-0.1-0.2-0.2V26.6h-1.5c-0.1,0-0.2-0.1-0.2-0.2V25
	C13.2,24.9,13.3,24.8,13.4,24.8z M24.3,24.8h1.5c0.1,0,0.2,0.1,0.2,0.2v3.5c0.1-0.1,0.2-0.2,0.4-0.3c0.3-0.1,0.7-0.3,1-0.3
	c0.6,0,1,0.2,1.3,0.6c0.3,0.4,0.2,1.3,0.2,2.1v5c0,1.2-0.8,1.7-1.5,1.7c-0.3,0-0.7-0.1-1-0.2c-0.1-0.1-0.2-0.2-0.4-0.3V37
	c0,0.1-0.1,0.2-0.2,0.2h-1.5c-0.1,0-0.2-0.1-0.2-0.2V25C24.1,24.9,24.2,24.8,24.3,24.8z M18.2,27.9h1.5c0.1,0,0.2,0.1,0.2,0.2V35
	c0,0.3,0.1,0.4,0.2,0.4c0.2,0,0.8-0.4,0.9-0.5v-6.8c0-0.1,0.1-0.2,0.2-0.2h1.5c0.1,0,0.2,0.1,0.2,0.2V37c0,0.1-0.1,0.2-0.2,0.2h-1.5
	C21.1,37.1,21,37,21,37v-0.5c-0.2,0.2-1.2,0.8-1.8,0.8c-0.4,0-0.7-0.2-1-0.5c-0.2-0.3-0.3-0.7-0.3-1.2v-7.5
	C18,28,18.1,27.9,18.2,27.9z M32.7,27.9c0.8,0,1.3,0.2,1.7,0.7c0.4,0.5,0.7,1.1,0.7,2v1.9c0,0.1-0.1,0.2-0.1,0.2h-2.9v1.8
	c0,1.4,1.5,1.3,1.5,0.1v-0.6c0-0.1,0-0.2,0.1-0.2l1.2,0c0.1,0,0.2,0.1,0.2,0.2v0.6c0,2.1-1.7,2.6-2.5,2.6c-0.8,0-2.2-0.8-2.2-2.6v-4
	C30.4,28.3,32,27.9,32.7,27.9z M32.9,29.4c-0.2,0-0.4,0-0.5,0.2c0,0.1-0.1,0.3-0.1,0.7V31h1.2v-0.7c0-0.4-0.1-0.6-0.1-0.7
	C33.2,29.5,33,29.4,32.9,29.4z M26.7,29.6c-0.1,0-0.3,0-0.4,0c-0.1,0-0.2,0.1-0.2,0.2v5.5c0.1,0.1,0.2,0.1,0.3,0.2
	c0.1,0,0.2,0.1,0.3,0.1c0.2,0,0.5,0,0.5-0.6v-4.7c0-0.2-0.1-0.4-0.1-0.5C27,29.7,26.9,29.6,26.7,29.6z"/>
</svg>
